<mxfile host="app.diagrams.net" modified="2022-09-25T05:10:20.938Z" agent="5.0 (Windows NT 10.0; Win64; x64) AppleWebKit/537.36 (KHTML, like Gecko) Chrome/105.0.0.0 Safari/537.36" etag="2nlEcZ1tOWN0FmVGATB0" version="20.3.3" type="github">
  <diagram id="R2lEEEUBdFMjLlhIrx00" name="Page-1">
    <mxGraphModel dx="1038" dy="547" grid="1" gridSize="10" guides="1" tooltips="1" connect="1" arrows="1" fold="1" page="1" pageScale="1" pageWidth="850" pageHeight="1100" math="0" shadow="0" extFonts="Permanent Marker^https://fonts.googleapis.com/css?family=Permanent+Marker">
      <root>
        <mxCell id="0" />
        <mxCell id="1" parent="0" />
        <mxCell id="OrXHp6-G33Mb6gZPY3T2-1" value="用户" style="rounded=0;whiteSpace=wrap;html=1;" vertex="1" parent="1">
          <mxGeometry x="190" y="290" width="120" height="60" as="geometry" />
        </mxCell>
        <mxCell id="OrXHp6-G33Mb6gZPY3T2-4" value="用户账户" style="ellipse;whiteSpace=wrap;html=1;" vertex="1" parent="1">
          <mxGeometry x="50" y="390" width="90" height="50" as="geometry" />
        </mxCell>
        <mxCell id="OrXHp6-G33Mb6gZPY3T2-5" value="用户id" style="ellipse;whiteSpace=wrap;html=1;" vertex="1" parent="1">
          <mxGeometry x="45" y="330" width="90" height="50" as="geometry" />
        </mxCell>
        <mxCell id="OrXHp6-G33Mb6gZPY3T2-6" value="密码" style="ellipse;whiteSpace=wrap;html=1;" vertex="1" parent="1">
          <mxGeometry x="70" y="450" width="100" height="50" as="geometry" />
        </mxCell>
        <mxCell id="OrXHp6-G33Mb6gZPY3T2-7" value="手机号码" style="ellipse;whiteSpace=wrap;html=1;" vertex="1" parent="1">
          <mxGeometry x="45" y="110" width="120" height="40" as="geometry" />
        </mxCell>
        <mxCell id="OrXHp6-G33Mb6gZPY3T2-8" value="用户昵称" style="ellipse;whiteSpace=wrap;html=1;" vertex="1" parent="1">
          <mxGeometry x="230" y="160" width="120" height="50" as="geometry" />
        </mxCell>
        <mxCell id="OrXHp6-G33Mb6gZPY3T2-9" value="用户头像" style="ellipse;whiteSpace=wrap;html=1;" vertex="1" parent="1">
          <mxGeometry x="190" y="460" width="120" height="60" as="geometry" />
        </mxCell>
        <mxCell id="OrXHp6-G33Mb6gZPY3T2-10" value="用户性别" style="ellipse;whiteSpace=wrap;html=1;" vertex="1" parent="1">
          <mxGeometry x="50" y="165" width="100" height="40" as="geometry" />
        </mxCell>
        <mxCell id="OrXHp6-G33Mb6gZPY3T2-12" value="用户偏好" style="ellipse;whiteSpace=wrap;html=1;" vertex="1" parent="1">
          <mxGeometry x="45" y="215" width="90" height="50" as="geometry" />
        </mxCell>
        <mxCell id="OrXHp6-G33Mb6gZPY3T2-13" value="初次登录" style="ellipse;whiteSpace=wrap;html=1;" vertex="1" parent="1">
          <mxGeometry x="35" y="270" width="120" height="50" as="geometry" />
        </mxCell>
        <mxCell id="OrXHp6-G33Mb6gZPY3T2-14" value="用户类别" style="ellipse;whiteSpace=wrap;html=1;" vertex="1" parent="1">
          <mxGeometry x="180" y="95" width="120" height="40" as="geometry" />
        </mxCell>
        <mxCell id="OrXHp6-G33Mb6gZPY3T2-18" style="edgeStyle=orthogonalEdgeStyle;rounded=0;orthogonalLoop=1;jettySize=auto;html=1;exitX=0.5;exitY=1;exitDx=0;exitDy=0;" edge="1" parent="1" source="OrXHp6-G33Mb6gZPY3T2-8" target="OrXHp6-G33Mb6gZPY3T2-8">
          <mxGeometry relative="1" as="geometry" />
        </mxCell>
        <mxCell id="OrXHp6-G33Mb6gZPY3T2-19" style="edgeStyle=orthogonalEdgeStyle;rounded=0;orthogonalLoop=1;jettySize=auto;html=1;exitX=0.5;exitY=1;exitDx=0;exitDy=0;" edge="1" parent="1" source="OrXHp6-G33Mb6gZPY3T2-7" target="OrXHp6-G33Mb6gZPY3T2-7">
          <mxGeometry relative="1" as="geometry" />
        </mxCell>
        <mxCell id="OrXHp6-G33Mb6gZPY3T2-20" style="edgeStyle=orthogonalEdgeStyle;rounded=0;orthogonalLoop=1;jettySize=auto;html=1;exitX=0.5;exitY=1;exitDx=0;exitDy=0;" edge="1" parent="1" source="OrXHp6-G33Mb6gZPY3T2-9" target="OrXHp6-G33Mb6gZPY3T2-9">
          <mxGeometry relative="1" as="geometry" />
        </mxCell>
        <mxCell id="OrXHp6-G33Mb6gZPY3T2-21" value="新闻" style="rounded=0;whiteSpace=wrap;html=1;" vertex="1" parent="1">
          <mxGeometry x="560" y="295" width="130" height="50" as="geometry" />
        </mxCell>
        <mxCell id="OrXHp6-G33Mb6gZPY3T2-22" value="评论" style="rhombus;whiteSpace=wrap;html=1;" vertex="1" parent="1">
          <mxGeometry x="400" y="85" width="80" height="60" as="geometry" />
        </mxCell>
        <mxCell id="OrXHp6-G33Mb6gZPY3T2-24" value="浏览" style="rhombus;whiteSpace=wrap;html=1;" vertex="1" parent="1">
          <mxGeometry x="405" y="165" width="80" height="50" as="geometry" />
        </mxCell>
        <mxCell id="OrXHp6-G33Mb6gZPY3T2-25" value="点赞" style="rhombus;whiteSpace=wrap;html=1;" vertex="1" parent="1">
          <mxGeometry x="385" y="450" width="80" height="60" as="geometry" />
        </mxCell>
        <mxCell id="OrXHp6-G33Mb6gZPY3T2-26" value="新闻id" style="ellipse;whiteSpace=wrap;html=1;" vertex="1" parent="1">
          <mxGeometry x="520" y="100" width="90" height="60" as="geometry" />
        </mxCell>
        <mxCell id="OrXHp6-G33Mb6gZPY3T2-27" value="新闻标题" style="ellipse;whiteSpace=wrap;html=1;" vertex="1" parent="1">
          <mxGeometry x="640" y="70" width="110" height="50" as="geometry" />
        </mxCell>
        <mxCell id="OrXHp6-G33Mb6gZPY3T2-28" value="新闻内容" style="ellipse;whiteSpace=wrap;html=1;" vertex="1" parent="1">
          <mxGeometry x="700" y="120" width="100" height="50" as="geometry" />
        </mxCell>
        <mxCell id="OrXHp6-G33Mb6gZPY3T2-29" value="图片url" style="ellipse;whiteSpace=wrap;html=1;" vertex="1" parent="1">
          <mxGeometry x="575" y="160" width="100" height="50" as="geometry" />
        </mxCell>
        <mxCell id="OrXHp6-G33Mb6gZPY3T2-30" value="评论内容" style="ellipse;whiteSpace=wrap;html=1;" vertex="1" parent="1">
          <mxGeometry x="450" y="20" width="120" height="50" as="geometry" />
        </mxCell>
        <mxCell id="OrXHp6-G33Mb6gZPY3T2-31" value="新闻类别" style="ellipse;whiteSpace=wrap;html=1;" vertex="1" parent="1">
          <mxGeometry x="740" y="170" width="100" height="50" as="geometry" />
        </mxCell>
        <mxCell id="OrXHp6-G33Mb6gZPY3T2-32" value="作者名称" style="ellipse;whiteSpace=wrap;html=1;" vertex="1" parent="1">
          <mxGeometry x="730" y="240" width="120" height="50" as="geometry" />
        </mxCell>
        <mxCell id="OrXHp6-G33Mb6gZPY3T2-45" style="edgeStyle=orthogonalEdgeStyle;rounded=0;orthogonalLoop=1;jettySize=auto;html=1;exitX=0.5;exitY=1;exitDx=0;exitDy=0;" edge="1" parent="1" source="OrXHp6-G33Mb6gZPY3T2-22" target="OrXHp6-G33Mb6gZPY3T2-22">
          <mxGeometry relative="1" as="geometry" />
        </mxCell>
        <mxCell id="OrXHp6-G33Mb6gZPY3T2-47" style="edgeStyle=orthogonalEdgeStyle;rounded=0;orthogonalLoop=1;jettySize=auto;html=1;exitX=0.5;exitY=1;exitDx=0;exitDy=0;" edge="1" parent="1" source="OrXHp6-G33Mb6gZPY3T2-24" target="OrXHp6-G33Mb6gZPY3T2-24">
          <mxGeometry relative="1" as="geometry" />
        </mxCell>
        <mxCell id="OrXHp6-G33Mb6gZPY3T2-49" value="浏览数" style="ellipse;whiteSpace=wrap;html=1;" vertex="1" parent="1">
          <mxGeometry x="530" y="412.5" width="120" height="47.5" as="geometry" />
        </mxCell>
        <mxCell id="OrXHp6-G33Mb6gZPY3T2-50" value="发布时间" style="ellipse;whiteSpace=wrap;html=1;" vertex="1" parent="1">
          <mxGeometry x="710" y="300" width="120" height="50" as="geometry" />
        </mxCell>
        <mxCell id="OrXHp6-G33Mb6gZPY3T2-51" value="收藏数" style="ellipse;whiteSpace=wrap;html=1;" vertex="1" parent="1">
          <mxGeometry x="690" y="430" width="120" height="50" as="geometry" />
        </mxCell>
        <mxCell id="OrXHp6-G33Mb6gZPY3T2-52" value="点赞数" style="ellipse;whiteSpace=wrap;html=1;" vertex="1" parent="1">
          <mxGeometry x="640" y="490" width="120" height="50" as="geometry" />
        </mxCell>
        <mxCell id="OrXHp6-G33Mb6gZPY3T2-53" value="评论数" style="ellipse;whiteSpace=wrap;html=1;" vertex="1" parent="1">
          <mxGeometry x="720" y="360" width="120" height="60" as="geometry" />
        </mxCell>
        <mxCell id="OrXHp6-G33Mb6gZPY3T2-54" value="点赞时间" style="ellipse;whiteSpace=wrap;html=1;" vertex="1" parent="1">
          <mxGeometry x="365" y="530" width="120" height="50" as="geometry" />
        </mxCell>
        <mxCell id="OrXHp6-G33Mb6gZPY3T2-55" value="浏览时间" style="ellipse;whiteSpace=wrap;html=1;" vertex="1" parent="1">
          <mxGeometry x="385" y="230" width="120" height="50" as="geometry" />
        </mxCell>
        <mxCell id="OrXHp6-G33Mb6gZPY3T2-56" value="评论时间" style="ellipse;whiteSpace=wrap;html=1;" vertex="1" parent="1">
          <mxGeometry x="300" y="35" width="120" height="35" as="geometry" />
        </mxCell>
        <mxCell id="OrXHp6-G33Mb6gZPY3T2-57" value="收藏时间" style="ellipse;whiteSpace=wrap;html=1;" vertex="1" parent="1">
          <mxGeometry x="370" y="390" width="120" height="50" as="geometry" />
        </mxCell>
        <mxCell id="OrXHp6-G33Mb6gZPY3T2-58" style="edgeStyle=orthogonalEdgeStyle;rounded=0;orthogonalLoop=1;jettySize=auto;html=1;exitX=0.5;exitY=1;exitDx=0;exitDy=0;" edge="1" parent="1" source="OrXHp6-G33Mb6gZPY3T2-22" target="OrXHp6-G33Mb6gZPY3T2-22">
          <mxGeometry relative="1" as="geometry" />
        </mxCell>
        <mxCell id="OrXHp6-G33Mb6gZPY3T2-61" style="edgeStyle=orthogonalEdgeStyle;rounded=0;orthogonalLoop=1;jettySize=auto;html=1;exitX=0.5;exitY=1;exitDx=0;exitDy=0;" edge="1" parent="1" source="OrXHp6-G33Mb6gZPY3T2-27" target="OrXHp6-G33Mb6gZPY3T2-27">
          <mxGeometry relative="1" as="geometry" />
        </mxCell>
        <mxCell id="OrXHp6-G33Mb6gZPY3T2-63" style="edgeStyle=orthogonalEdgeStyle;rounded=0;orthogonalLoop=1;jettySize=auto;html=1;exitX=0.5;exitY=1;exitDx=0;exitDy=0;" edge="1" parent="1" source="OrXHp6-G33Mb6gZPY3T2-29" target="OrXHp6-G33Mb6gZPY3T2-29">
          <mxGeometry relative="1" as="geometry" />
        </mxCell>
        <mxCell id="OrXHp6-G33Mb6gZPY3T2-77" value="收藏" style="rhombus;whiteSpace=wrap;html=1;" vertex="1" parent="1">
          <mxGeometry x="390" y="300" width="80" height="70" as="geometry" />
        </mxCell>
        <mxCell id="OrXHp6-G33Mb6gZPY3T2-81" value="" style="endArrow=none;html=1;rounded=0;entryX=0;entryY=0.5;entryDx=0;entryDy=0;exitX=1;exitY=0;exitDx=0;exitDy=0;" edge="1" parent="1" source="OrXHp6-G33Mb6gZPY3T2-1" target="OrXHp6-G33Mb6gZPY3T2-22">
          <mxGeometry width="50" height="50" relative="1" as="geometry">
            <mxPoint x="410" y="350" as="sourcePoint" />
            <mxPoint x="460" y="300" as="targetPoint" />
          </mxGeometry>
        </mxCell>
        <mxCell id="OrXHp6-G33Mb6gZPY3T2-124" value="N" style="edgeLabel;html=1;align=center;verticalAlign=middle;resizable=0;points=[];" vertex="1" connectable="0" parent="OrXHp6-G33Mb6gZPY3T2-81">
          <mxGeometry x="0.3143" y="2" relative="1" as="geometry">
            <mxPoint as="offset" />
          </mxGeometry>
        </mxCell>
        <mxCell id="OrXHp6-G33Mb6gZPY3T2-82" value="" style="endArrow=none;html=1;rounded=0;entryX=1;entryY=0.5;entryDx=0;entryDy=0;exitX=0;exitY=0;exitDx=0;exitDy=0;" edge="1" parent="1" source="OrXHp6-G33Mb6gZPY3T2-21" target="OrXHp6-G33Mb6gZPY3T2-22">
          <mxGeometry width="50" height="50" relative="1" as="geometry">
            <mxPoint x="560" y="290" as="sourcePoint" />
            <mxPoint x="460" y="300" as="targetPoint" />
          </mxGeometry>
        </mxCell>
        <mxCell id="OrXHp6-G33Mb6gZPY3T2-125" value="N" style="edgeLabel;html=1;align=center;verticalAlign=middle;resizable=0;points=[];" vertex="1" connectable="0" parent="OrXHp6-G33Mb6gZPY3T2-82">
          <mxGeometry x="0.5085" y="-1" relative="1" as="geometry">
            <mxPoint y="1" as="offset" />
          </mxGeometry>
        </mxCell>
        <mxCell id="OrXHp6-G33Mb6gZPY3T2-83" value="N" style="endArrow=none;html=1;rounded=0;entryX=0;entryY=0.5;entryDx=0;entryDy=0;" edge="1" parent="1" target="OrXHp6-G33Mb6gZPY3T2-24">
          <mxGeometry width="50" height="50" relative="1" as="geometry">
            <mxPoint x="310" y="290" as="sourcePoint" />
            <mxPoint x="460" y="200" as="targetPoint" />
          </mxGeometry>
        </mxCell>
        <mxCell id="OrXHp6-G33Mb6gZPY3T2-84" value="" style="endArrow=none;html=1;rounded=0;entryX=1;entryY=0.5;entryDx=0;entryDy=0;exitX=0;exitY=0;exitDx=0;exitDy=0;" edge="1" parent="1" source="OrXHp6-G33Mb6gZPY3T2-21" target="OrXHp6-G33Mb6gZPY3T2-24">
          <mxGeometry width="50" height="50" relative="1" as="geometry">
            <mxPoint x="560" y="290" as="sourcePoint" />
            <mxPoint x="460" y="200" as="targetPoint" />
          </mxGeometry>
        </mxCell>
        <mxCell id="OrXHp6-G33Mb6gZPY3T2-126" value="N" style="edgeLabel;html=1;align=center;verticalAlign=middle;resizable=0;points=[];" vertex="1" connectable="0" parent="OrXHp6-G33Mb6gZPY3T2-84">
          <mxGeometry x="0.2378" y="2" relative="1" as="geometry">
            <mxPoint as="offset" />
          </mxGeometry>
        </mxCell>
        <mxCell id="OrXHp6-G33Mb6gZPY3T2-85" value="N" style="endArrow=none;html=1;rounded=0;entryX=1;entryY=0.75;entryDx=0;entryDy=0;exitX=0;exitY=0.5;exitDx=0;exitDy=0;" edge="1" parent="1" source="OrXHp6-G33Mb6gZPY3T2-77" target="OrXHp6-G33Mb6gZPY3T2-1">
          <mxGeometry width="50" height="50" relative="1" as="geometry">
            <mxPoint x="410" y="350" as="sourcePoint" />
            <mxPoint x="460" y="300" as="targetPoint" />
          </mxGeometry>
        </mxCell>
        <mxCell id="OrXHp6-G33Mb6gZPY3T2-86" value="" style="endArrow=none;html=1;rounded=0;entryX=0;entryY=0.5;entryDx=0;entryDy=0;exitX=1;exitY=0.5;exitDx=0;exitDy=0;" edge="1" parent="1" source="OrXHp6-G33Mb6gZPY3T2-77" target="OrXHp6-G33Mb6gZPY3T2-21">
          <mxGeometry width="50" height="50" relative="1" as="geometry">
            <mxPoint x="410" y="350" as="sourcePoint" />
            <mxPoint x="460" y="300" as="targetPoint" />
          </mxGeometry>
        </mxCell>
        <mxCell id="OrXHp6-G33Mb6gZPY3T2-123" value="N" style="edgeLabel;html=1;align=center;verticalAlign=middle;resizable=0;points=[];" vertex="1" connectable="0" parent="OrXHp6-G33Mb6gZPY3T2-86">
          <mxGeometry x="-0.4263" y="-2" relative="1" as="geometry">
            <mxPoint as="offset" />
          </mxGeometry>
        </mxCell>
        <mxCell id="OrXHp6-G33Mb6gZPY3T2-87" value="" style="endArrow=none;html=1;rounded=0;entryX=0.75;entryY=1;entryDx=0;entryDy=0;exitX=0;exitY=0.5;exitDx=0;exitDy=0;" edge="1" parent="1" source="OrXHp6-G33Mb6gZPY3T2-25" target="OrXHp6-G33Mb6gZPY3T2-1">
          <mxGeometry width="50" height="50" relative="1" as="geometry">
            <mxPoint x="410" y="350" as="sourcePoint" />
            <mxPoint x="460" y="300" as="targetPoint" />
          </mxGeometry>
        </mxCell>
        <mxCell id="OrXHp6-G33Mb6gZPY3T2-122" value="N" style="edgeLabel;html=1;align=center;verticalAlign=middle;resizable=0;points=[];" vertex="1" connectable="0" parent="OrXHp6-G33Mb6gZPY3T2-87">
          <mxGeometry x="-0.2312" y="3" relative="1" as="geometry">
            <mxPoint as="offset" />
          </mxGeometry>
        </mxCell>
        <mxCell id="OrXHp6-G33Mb6gZPY3T2-88" value="N" style="endArrow=none;html=1;rounded=0;exitX=1;exitY=0.5;exitDx=0;exitDy=0;" edge="1" parent="1" source="OrXHp6-G33Mb6gZPY3T2-25">
          <mxGeometry width="50" height="50" relative="1" as="geometry">
            <mxPoint x="410" y="350" as="sourcePoint" />
            <mxPoint x="560" y="320" as="targetPoint" />
          </mxGeometry>
        </mxCell>
        <mxCell id="OrXHp6-G33Mb6gZPY3T2-89" value="" style="endArrow=none;html=1;rounded=0;entryX=0.56;entryY=1.036;entryDx=0;entryDy=0;entryPerimeter=0;exitX=0.5;exitY=0;exitDx=0;exitDy=0;" edge="1" parent="1" source="OrXHp6-G33Mb6gZPY3T2-1" target="OrXHp6-G33Mb6gZPY3T2-8">
          <mxGeometry width="50" height="50" relative="1" as="geometry">
            <mxPoint x="410" y="350" as="sourcePoint" />
            <mxPoint x="460" y="300" as="targetPoint" />
          </mxGeometry>
        </mxCell>
        <mxCell id="OrXHp6-G33Mb6gZPY3T2-90" value="" style="endArrow=none;html=1;rounded=0;entryX=0.263;entryY=0.96;entryDx=0;entryDy=0;entryPerimeter=0;" edge="1" parent="1" source="OrXHp6-G33Mb6gZPY3T2-1" target="OrXHp6-G33Mb6gZPY3T2-14">
          <mxGeometry width="50" height="50" relative="1" as="geometry">
            <mxPoint x="410" y="350" as="sourcePoint" />
            <mxPoint x="460" y="300" as="targetPoint" />
          </mxGeometry>
        </mxCell>
        <mxCell id="OrXHp6-G33Mb6gZPY3T2-91" value="" style="endArrow=none;html=1;rounded=0;entryX=0.942;entryY=0.745;entryDx=0;entryDy=0;entryPerimeter=0;exitX=0.44;exitY=-0.01;exitDx=0;exitDy=0;exitPerimeter=0;" edge="1" parent="1" source="OrXHp6-G33Mb6gZPY3T2-1" target="OrXHp6-G33Mb6gZPY3T2-7">
          <mxGeometry width="50" height="50" relative="1" as="geometry">
            <mxPoint x="410" y="350" as="sourcePoint" />
            <mxPoint x="460" y="300" as="targetPoint" />
          </mxGeometry>
        </mxCell>
        <mxCell id="OrXHp6-G33Mb6gZPY3T2-92" value="" style="endArrow=none;html=1;rounded=0;entryX=1;entryY=0.5;entryDx=0;entryDy=0;exitX=0.44;exitY=-0.023;exitDx=0;exitDy=0;exitPerimeter=0;" edge="1" parent="1" source="OrXHp6-G33Mb6gZPY3T2-1" target="OrXHp6-G33Mb6gZPY3T2-10">
          <mxGeometry width="50" height="50" relative="1" as="geometry">
            <mxPoint x="410" y="350" as="sourcePoint" />
            <mxPoint x="460" y="300" as="targetPoint" />
          </mxGeometry>
        </mxCell>
        <mxCell id="OrXHp6-G33Mb6gZPY3T2-93" value="" style="endArrow=none;html=1;rounded=0;entryX=1;entryY=0.5;entryDx=0;entryDy=0;" edge="1" parent="1" source="OrXHp6-G33Mb6gZPY3T2-1" target="OrXHp6-G33Mb6gZPY3T2-12">
          <mxGeometry width="50" height="50" relative="1" as="geometry">
            <mxPoint x="410" y="350" as="sourcePoint" />
            <mxPoint x="460" y="300" as="targetPoint" />
          </mxGeometry>
        </mxCell>
        <mxCell id="OrXHp6-G33Mb6gZPY3T2-94" value="" style="endArrow=none;html=1;rounded=0;entryX=0.972;entryY=0.788;entryDx=0;entryDy=0;entryPerimeter=0;exitX=0;exitY=0.5;exitDx=0;exitDy=0;" edge="1" parent="1" source="OrXHp6-G33Mb6gZPY3T2-1" target="OrXHp6-G33Mb6gZPY3T2-13">
          <mxGeometry width="50" height="50" relative="1" as="geometry">
            <mxPoint x="410" y="350" as="sourcePoint" />
            <mxPoint x="460" y="300" as="targetPoint" />
          </mxGeometry>
        </mxCell>
        <mxCell id="OrXHp6-G33Mb6gZPY3T2-95" value="" style="endArrow=none;html=1;rounded=0;entryX=1;entryY=0.5;entryDx=0;entryDy=0;" edge="1" parent="1" target="OrXHp6-G33Mb6gZPY3T2-5">
          <mxGeometry width="50" height="50" relative="1" as="geometry">
            <mxPoint x="200" y="350" as="sourcePoint" />
            <mxPoint x="460" y="300" as="targetPoint" />
          </mxGeometry>
        </mxCell>
        <mxCell id="OrXHp6-G33Mb6gZPY3T2-97" value="" style="endArrow=none;html=1;rounded=0;entryX=1;entryY=0.5;entryDx=0;entryDy=0;exitX=0.25;exitY=1;exitDx=0;exitDy=0;" edge="1" parent="1" source="OrXHp6-G33Mb6gZPY3T2-1" target="OrXHp6-G33Mb6gZPY3T2-4">
          <mxGeometry width="50" height="50" relative="1" as="geometry">
            <mxPoint x="410" y="350" as="sourcePoint" />
            <mxPoint x="460" y="300" as="targetPoint" />
          </mxGeometry>
        </mxCell>
        <mxCell id="OrXHp6-G33Mb6gZPY3T2-101" value="" style="endArrow=none;html=1;rounded=0;" edge="1" parent="1" source="OrXHp6-G33Mb6gZPY3T2-6">
          <mxGeometry width="50" height="50" relative="1" as="geometry">
            <mxPoint x="410" y="350" as="sourcePoint" />
            <mxPoint x="220" y="350" as="targetPoint" />
          </mxGeometry>
        </mxCell>
        <mxCell id="OrXHp6-G33Mb6gZPY3T2-102" value="" style="endArrow=none;html=1;rounded=0;entryX=0.25;entryY=1;entryDx=0;entryDy=0;exitX=0.5;exitY=0;exitDx=0;exitDy=0;" edge="1" parent="1" source="OrXHp6-G33Mb6gZPY3T2-9" target="OrXHp6-G33Mb6gZPY3T2-1">
          <mxGeometry width="50" height="50" relative="1" as="geometry">
            <mxPoint x="410" y="350" as="sourcePoint" />
            <mxPoint x="460" y="300" as="targetPoint" />
          </mxGeometry>
        </mxCell>
        <mxCell id="OrXHp6-G33Mb6gZPY3T2-106" value="" style="endArrow=none;html=1;rounded=0;exitX=0.5;exitY=1;exitDx=0;exitDy=0;" edge="1" parent="1" source="OrXHp6-G33Mb6gZPY3T2-24" target="OrXHp6-G33Mb6gZPY3T2-55">
          <mxGeometry width="50" height="50" relative="1" as="geometry">
            <mxPoint x="410" y="350" as="sourcePoint" />
            <mxPoint x="460" y="300" as="targetPoint" />
          </mxGeometry>
        </mxCell>
        <mxCell id="OrXHp6-G33Mb6gZPY3T2-107" value="" style="endArrow=none;html=1;rounded=0;entryX=0.63;entryY=1.097;entryDx=0;entryDy=0;entryPerimeter=0;exitX=0;exitY=0;exitDx=0;exitDy=0;" edge="1" parent="1" source="OrXHp6-G33Mb6gZPY3T2-22" target="OrXHp6-G33Mb6gZPY3T2-56">
          <mxGeometry width="50" height="50" relative="1" as="geometry">
            <mxPoint x="410" y="350" as="sourcePoint" />
            <mxPoint x="460" y="300" as="targetPoint" />
          </mxGeometry>
        </mxCell>
        <mxCell id="OrXHp6-G33Mb6gZPY3T2-108" value="" style="endArrow=none;html=1;rounded=0;entryX=0.307;entryY=0.972;entryDx=0;entryDy=0;entryPerimeter=0;exitX=1;exitY=0;exitDx=0;exitDy=0;" edge="1" parent="1" source="OrXHp6-G33Mb6gZPY3T2-22" target="OrXHp6-G33Mb6gZPY3T2-30">
          <mxGeometry width="50" height="50" relative="1" as="geometry">
            <mxPoint x="410" y="250" as="sourcePoint" />
            <mxPoint x="460" y="200" as="targetPoint" />
          </mxGeometry>
        </mxCell>
        <mxCell id="OrXHp6-G33Mb6gZPY3T2-109" value="" style="endArrow=none;html=1;rounded=0;entryX=0.5;entryY=1;entryDx=0;entryDy=0;exitX=0.3;exitY=0.036;exitDx=0;exitDy=0;exitPerimeter=0;" edge="1" parent="1" source="OrXHp6-G33Mb6gZPY3T2-57" target="OrXHp6-G33Mb6gZPY3T2-77">
          <mxGeometry width="50" height="50" relative="1" as="geometry">
            <mxPoint x="410" y="350" as="sourcePoint" />
            <mxPoint x="460" y="300" as="targetPoint" />
          </mxGeometry>
        </mxCell>
        <mxCell id="OrXHp6-G33Mb6gZPY3T2-110" value="" style="endArrow=none;html=1;rounded=0;entryX=0.5;entryY=1;entryDx=0;entryDy=0;exitX=0;exitY=0;exitDx=0;exitDy=0;" edge="1" parent="1" source="OrXHp6-G33Mb6gZPY3T2-54" target="OrXHp6-G33Mb6gZPY3T2-25">
          <mxGeometry width="50" height="50" relative="1" as="geometry">
            <mxPoint x="410" y="450" as="sourcePoint" />
            <mxPoint x="460" y="400" as="targetPoint" />
          </mxGeometry>
        </mxCell>
        <mxCell id="OrXHp6-G33Mb6gZPY3T2-111" value="" style="endArrow=none;html=1;rounded=0;entryX=0.344;entryY=0.956;entryDx=0;entryDy=0;entryPerimeter=0;" edge="1" parent="1" source="OrXHp6-G33Mb6gZPY3T2-21" target="OrXHp6-G33Mb6gZPY3T2-29">
          <mxGeometry width="50" height="50" relative="1" as="geometry">
            <mxPoint x="410" y="350" as="sourcePoint" />
            <mxPoint x="460" y="300" as="targetPoint" />
          </mxGeometry>
        </mxCell>
        <mxCell id="OrXHp6-G33Mb6gZPY3T2-112" value="" style="endArrow=none;html=1;rounded=0;entryX=0.5;entryY=1;entryDx=0;entryDy=0;exitX=0.25;exitY=0;exitDx=0;exitDy=0;" edge="1" parent="1" source="OrXHp6-G33Mb6gZPY3T2-21" target="OrXHp6-G33Mb6gZPY3T2-26">
          <mxGeometry width="50" height="50" relative="1" as="geometry">
            <mxPoint x="410" y="350" as="sourcePoint" />
            <mxPoint x="460" y="300" as="targetPoint" />
          </mxGeometry>
        </mxCell>
        <mxCell id="OrXHp6-G33Mb6gZPY3T2-113" value="" style="endArrow=none;html=1;rounded=0;entryX=0.32;entryY=0.964;entryDx=0;entryDy=0;entryPerimeter=0;" edge="1" parent="1" source="OrXHp6-G33Mb6gZPY3T2-21" target="OrXHp6-G33Mb6gZPY3T2-31">
          <mxGeometry width="50" height="50" relative="1" as="geometry">
            <mxPoint x="410" y="350" as="sourcePoint" />
            <mxPoint x="460" y="300" as="targetPoint" />
          </mxGeometry>
        </mxCell>
        <mxCell id="OrXHp6-G33Mb6gZPY3T2-114" value="" style="endArrow=none;html=1;rounded=0;entryX=0.5;entryY=1;entryDx=0;entryDy=0;exitX=0.705;exitY=-0.032;exitDx=0;exitDy=0;exitPerimeter=0;" edge="1" parent="1" source="OrXHp6-G33Mb6gZPY3T2-21" target="OrXHp6-G33Mb6gZPY3T2-27">
          <mxGeometry width="50" height="50" relative="1" as="geometry">
            <mxPoint x="410" y="350" as="sourcePoint" />
            <mxPoint x="700" y="130" as="targetPoint" />
          </mxGeometry>
        </mxCell>
        <mxCell id="OrXHp6-G33Mb6gZPY3T2-115" value="" style="endArrow=none;html=1;rounded=0;exitX=0.75;exitY=0;exitDx=0;exitDy=0;" edge="1" parent="1" source="OrXHp6-G33Mb6gZPY3T2-21" target="OrXHp6-G33Mb6gZPY3T2-28">
          <mxGeometry width="50" height="50" relative="1" as="geometry">
            <mxPoint x="410" y="350" as="sourcePoint" />
            <mxPoint x="460" y="300" as="targetPoint" />
          </mxGeometry>
        </mxCell>
        <mxCell id="OrXHp6-G33Mb6gZPY3T2-116" value="" style="endArrow=none;html=1;rounded=0;entryX=0;entryY=1;entryDx=0;entryDy=0;exitX=1;exitY=0;exitDx=0;exitDy=0;" edge="1" parent="1" source="OrXHp6-G33Mb6gZPY3T2-21" target="OrXHp6-G33Mb6gZPY3T2-32">
          <mxGeometry width="50" height="50" relative="1" as="geometry">
            <mxPoint x="410" y="350" as="sourcePoint" />
            <mxPoint x="460" y="300" as="targetPoint" />
          </mxGeometry>
        </mxCell>
        <mxCell id="OrXHp6-G33Mb6gZPY3T2-117" value="" style="endArrow=none;html=1;rounded=0;entryX=0;entryY=0.5;entryDx=0;entryDy=0;exitX=1;exitY=0.75;exitDx=0;exitDy=0;" edge="1" parent="1" source="OrXHp6-G33Mb6gZPY3T2-21" target="OrXHp6-G33Mb6gZPY3T2-50">
          <mxGeometry width="50" height="50" relative="1" as="geometry">
            <mxPoint x="410" y="350" as="sourcePoint" />
            <mxPoint x="460" y="300" as="targetPoint" />
          </mxGeometry>
        </mxCell>
        <mxCell id="OrXHp6-G33Mb6gZPY3T2-118" value="" style="endArrow=none;html=1;rounded=0;entryX=0;entryY=0.5;entryDx=0;entryDy=0;exitX=0.75;exitY=1;exitDx=0;exitDy=0;" edge="1" parent="1" source="OrXHp6-G33Mb6gZPY3T2-21" target="OrXHp6-G33Mb6gZPY3T2-53">
          <mxGeometry width="50" height="50" relative="1" as="geometry">
            <mxPoint x="410" y="350" as="sourcePoint" />
            <mxPoint x="460" y="300" as="targetPoint" />
          </mxGeometry>
        </mxCell>
        <mxCell id="OrXHp6-G33Mb6gZPY3T2-119" value="" style="endArrow=none;html=1;rounded=0;entryX=0.433;entryY=0.036;entryDx=0;entryDy=0;entryPerimeter=0;exitX=0.75;exitY=1;exitDx=0;exitDy=0;" edge="1" parent="1" source="OrXHp6-G33Mb6gZPY3T2-21" target="OrXHp6-G33Mb6gZPY3T2-51">
          <mxGeometry width="50" height="50" relative="1" as="geometry">
            <mxPoint x="410" y="350" as="sourcePoint" />
            <mxPoint x="460" y="300" as="targetPoint" />
          </mxGeometry>
        </mxCell>
        <mxCell id="OrXHp6-G33Mb6gZPY3T2-120" value="" style="endArrow=none;html=1;rounded=0;entryX=0.383;entryY=-0.012;entryDx=0;entryDy=0;entryPerimeter=0;exitX=0.5;exitY=1;exitDx=0;exitDy=0;" edge="1" parent="1" source="OrXHp6-G33Mb6gZPY3T2-21" target="OrXHp6-G33Mb6gZPY3T2-52">
          <mxGeometry width="50" height="50" relative="1" as="geometry">
            <mxPoint x="640" y="350" as="sourcePoint" />
            <mxPoint x="460" y="300" as="targetPoint" />
          </mxGeometry>
        </mxCell>
        <mxCell id="OrXHp6-G33Mb6gZPY3T2-121" value="" style="endArrow=none;html=1;rounded=0;entryX=0.708;entryY=0.038;entryDx=0;entryDy=0;entryPerimeter=0;" edge="1" parent="1" source="OrXHp6-G33Mb6gZPY3T2-21" target="OrXHp6-G33Mb6gZPY3T2-49">
          <mxGeometry width="50" height="50" relative="1" as="geometry">
            <mxPoint x="410" y="350" as="sourcePoint" />
            <mxPoint x="460" y="300" as="targetPoint" />
          </mxGeometry>
        </mxCell>
      </root>
    </mxGraphModel>
  </diagram>
</mxfile>
